<svg xmlns="http://www.w3.org/2000/svg" width="170" height="170" viewBox="0 0 170 170">
  <!-- Star of David -->
  <g fill="none" stroke="#213A8F" stroke-width="1.4" stroke-linejoin="round">
    <polygon points="42,20 56,44 28,44"/>
    <polygon points="42,60 56,36 28,36"/>
  </g>
  <!-- Lotus (8 petals) -->
  <g fill="none" stroke="#E5912F" stroke-width="1.4" transform="translate(128,44)">
    <ellipse cx="0" cy="0" rx="4.5" ry="13"/>
    <ellipse cx="0" cy="0" rx="4.5" ry="13" transform="rotate(45)"/>
    <ellipse cx="0" cy="0" rx="4.5" ry="13" transform="rotate(90)"/>
    <ellipse cx="0" cy="0" rx="4.5" ry="13" transform="rotate(135)"/>
  </g>
  <!-- Om -->
  <text x="112" y="140" font-family="'Tiro Devanagari Hindi',serif" font-size="34" fill="#8A2B2B">ॐ</text>
  <!-- Menorah -->
  <g transform="translate(45,126)" stroke="#213A8F" stroke-width="1.4" fill="none" stroke-linecap="round">
    <path d="M-20,2 h40 M0,2 v-16 M-7,-7 v-9 M7,-7 v-9 M-14,-5 v-11 M14,-5 v-11 M-3,6 h6 M-9,10 h18"/>
    <path d="M-20,-14 a20,16 0 0,0 40,0" opacity="0"/>
  </g>
</svg>
